<?xml version="1.0" standalone="no"?>
<!DOCTYPE svg PUBLIC "-//W3C//DTD SVG 20010904//EN"
 "http://www.w3.org/TR/2001/REC-SVG-20010904/DTD/svg10.dtd">
<svg version="1.0" xmlns="http://www.w3.org/2000/svg"
 width="887.000000pt" height="887.000000pt" viewBox="0 0 887.000000 887.000000"
 preserveAspectRatio="xMidYMid meet">
<metadata>
Created by potrace 1.14, written by Peter Selinger 2001-2017
</metadata>
<g transform="translate(0.000000,887.000000) scale(0.100000,-0.100000)"
fill="#000000" stroke="none">
<path d="M4357 7894 c-1 -1 -51 -4 -112 -8 -60 -3 -121 -8 -135 -11 -14 -2
-43 -6 -65 -10 -37 -5 -123 -20 -170 -29 -184 -36 -475 -142 -660 -242 -385
-207 -724 -512 -959 -864 -92 -138 -177 -294 -235 -430 -45 -107 -103 -274
-115 -331 -3 -13 -12 -51 -20 -84 -8 -33 -16 -73 -19 -90 -3 -16 -10 -59 -16
-95 -21 -128 -23 -158 -26 -350 -3 -286 11 -415 81 -729 10 -46 92 -287 114
-336 107 -237 188 -375 334 -570 33 -44 84 -108 113 -141 l53 -61 -67 -44
c-304 -196 -533 -475 -604 -735 -27 -99 -31 -125 -33 -229 -2 -109 7 -174 39
-280 51 -166 144 -313 295 -466 172 -174 345 -293 602 -418 161 -77 242 -108
503 -190 27 -9 136 -37 175 -46 99 -23 209 -45 270 -55 41 -6 86 -13 100 -16
14 -2 50 -6 80 -10 30 -3 66 -7 79 -9 167 -27 750 -27 973 1 712 87 1291 306
1683 638 216 183 377 424 421 631 3 11 9 40 14 65 16 77 5 285 -19 370 -31
106 -109 261 -179 355 -68 90 -198 222 -287 290 -33 25 -67 52 -75 58 -9 7
-48 33 -88 57 -39 25 -72 48 -72 51 0 3 14 21 31 40 187 209 380 517 470 754
11 28 24 59 29 70 27 58 98 320 115 425 3 19 7 46 10 60 26 137 36 427 21 625
-7 105 -37 307 -52 357 -5 15 -9 34 -19 83 -7 30 -51 172 -73 235 -174 489
-545 969 -974 1258 -303 204 -613 337 -933 401 -92 18 -127 24 -217 36 -66 9
-374 24 -381 19z m1818 -4670 c148 -83 338 -251 417 -367 92 -135 128 -248
124 -387 -5 -136 -45 -243 -139 -370 -72 -96 -263 -273 -243 -225 50 120 59
162 60 275 0 133 -16 205 -70 317 -98 200 -294 384 -557 522 l-77 41 27 16
c88 54 255 167 298 202 l50 40 30 -18 c17 -9 53 -30 80 -46z m-3351 13 c61
-50 258 -181 295 -196 17 -8 31 -16 31 -20 0 -3 -42 -30 -93 -60 -128 -76
-204 -131 -292 -212 -219 -205 -315 -440 -282 -687 8 -58 43 -169 61 -191 28
-35 -37 13 -114 86 -134 126 -200 222 -246 358 -29 86 -38 199 -21 270 5 22
10 47 12 55 22 102 129 266 246 376 65 60 185 154 198 154 5 0 11 4 13 8 3 8
138 92 147 92 2 0 22 -15 45 -33z m2527 -441 c304 -109 517 -248 630 -413 132
-191 87 -398 -125 -580 -60 -51 -145 -112 -157 -113 -3 0 -6 35 -6 78 0 359
-446 662 -1058 719 -138 13 -413 7 -501 -11 -12 -2 -39 -7 -60 -10 -296 -47
-592 -188 -747 -356 -50 -54 -133 -185 -117 -185 2 0 -2 -10 -9 -23 -15 -28
-21 -69 -22 -149 0 -35 -3 -63 -7 -63 -4 0 -46 30 -95 66 -348 261 -345 555 7
818 70 52 195 123 291 163 81 35 106 45 120 49 6 1 29 9 53 18 41 15 47 14
168 -19 115 -32 176 -45 278 -61 21 -3 48 -7 60 -10 123 -24 614 -23 688 1 7
2 33 6 58 9 84 10 115 17 260 52 80 20 149 40 155 45 15 15 37 11 136 -25z
m-716 -650 c100 -12 127 -17 215 -38 239 -58 439 -177 491 -292 21 -48 17 -79
-19 -131 -92 -132 -372 -262 -627 -291 -33 -3 -69 -8 -80 -10 -28 -6 -299 -6
-360 0 -387 37 -736 224 -735 393 1 66 123 181 264 247 71 33 204 79 261 90
17 4 41 9 55 11 33 7 166 24 210 27 64 5 264 1 325 -6z"/>
</g>
</svg>
