<?xml version="1.0" standalone="no"?>
<!DOCTYPE svg PUBLIC "-//W3C//DTD SVG 20010904//EN"
 "http://www.w3.org/TR/2001/REC-SVG-20010904/DTD/svg10.dtd">
<svg version="1.0" xmlns="http://www.w3.org/2000/svg"
 width="400.000000pt" height="400.000000pt" viewBox="0 0 400.000000 400.000000"
 preserveAspectRatio="xMidYMid meet">
<metadata>
Created by potrace 1.14, written by Peter Selinger 2001-2017
</metadata>
<g transform="translate(0.000000,400.000000) scale(0.100000,-0.100000)"
fill="#000000" stroke="none">
<path d="M1779 3806 c-2 -2 -33 -7 -69 -11 -36 -4 -82 -9 -103 -11 -120 -13
-334 -68 -497 -126 -660 -239 -1031 -736 -920 -1234 77 -343 391 -663 835
-849 61 -25 237 -86 265 -91 14 -3 39 -9 55 -14 67 -19 232 -49 375 -67 122
-15 582 -7 650 12 8 2 35 7 60 10 426 60 841 253 1097 512 98 99 158 180 211
288 36 72 49 110 80 228 13 48 9 255 -6 324 -68 312 -344 615 -726 798 -131
62 -293 122 -411 151 -103 26 -241 53 -300 60 -27 3 -61 8 -75 11 -28 6 -515
14 -521 9z m511 -170 c52 -7 106 -16 190 -32 596 -119 1019 -412 1145 -794 23
-69 24 -75 30 -190 17 -373 -293 -724 -815 -923 -53 -21 -101 -36 -160 -52 -3
-1 -23 -7 -45 -13 -41 -12 -222 -48 -285 -57 -100 -13 -221 -19 -365 -19 -248
2 -343 14 -635 79 -69 16 -243 80 -338 125 -435 207 -680 522 -668 858 4 103
6 117 32 196 137 423 685 754 1359 821 39 4 72 9 74 11 4 4 435 -5 481 -10z"/>
<path d="M1885 3565 c-116 -25 -199 -69 -285 -151 -38 -36 -61 -47 -147 -73
-104 -30 -127 -39 -243 -94 -279 -131 -489 -367 -527 -592 -8 -49 -8 -167 0
-220 37 -230 262 -475 562 -612 82 -37 220 -87 270 -97 11 -3 52 -11 90 -20
39 -8 89 -17 113 -20 23 -3 61 -9 85 -12 92 -13 379 -6 477 11 14 3 41 7 60
10 279 45 568 179 744 345 417 395 282 930 -309 1215 -49 23 -144 60 -210 81
-88 27 -127 45 -145 65 -124 135 -349 204 -535 164z m-466 -542 c-2 -59 7
-149 16 -164 3 -4 -21 -28 -54 -53 -183 -141 -250 -311 -191 -487 61 -181 252
-328 512 -393 657 -167 1308 249 1084 692 -30 60 -101 139 -167 188 -48 35
-49 37 -42 73 4 20 7 73 7 117 l0 82 28 -10 c51 -18 206 -122 262 -176 90 -87
161 -209 181 -309 9 -47 7 -145 -5 -197 -22 -100 -91 -211 -184 -299 -38 -36
-161 -126 -161 -118 0 2 -22 -10 -49 -28 -28 -17 -54 -31 -59 -31 -4 0 -28 -9
-53 -21 -63 -28 -253 -76 -349 -87 -79 -10 -370 -9 -411 1 -12 3 -39 8 -60 11
-21 4 -66 13 -99 22 -413 105 -687 366 -686 654 1 101 21 172 77 267 47 82
167 196 264 252 68 40 126 71 132 71 5 0 7 -26 7 -57z m381 -578 c73 -26 102
-30 205 -30 91 0 203 21 240 45 6 4 31 19 57 34 l48 27 36 -38 c155 -162 57
-371 -211 -448 -292 -84 -636 68 -635 280 0 62 26 119 75 168 l37 37 53 -30
c29 -16 72 -37 95 -45z"/>
<path d="M638 1174 c-2 -1 -20 -5 -41 -8 -76 -12 -142 -60 -180 -131 -21 -37
-22 -56 -25 -283 -4 -276 3 -314 64 -378 55 -55 114 -77 219 -80 112 -3 171
15 232 70 75 69 83 106 80 386 l-2 235 -30 53 c-31 57 -84 101 -147 121 -32
11 -163 22 -170 15z m94 -184 c18 -22 19 -40 16 -268 -3 -228 -4 -245 -22
-258 -30 -21 -62 -17 -80 11 -14 21 -17 56 -17 213 -1 296 -2 280 25 307 28
28 52 27 78 -5z"/>
<path d="M1317 1163 c-120 -27 -187 -106 -202 -236 l-7 -54 97 -2 c53 -1 102
-4 110 -7 9 -4 15 5 19 25 3 17 9 44 12 61 6 32 13 39 43 45 36 7 54 -29 54
-103 0 -37 -1 -74 -2 -83 -1 -12 -17 -18 -68 -22 -90 -9 -165 -48 -220 -115
-116 -141 -59 -325 103 -336 44 -3 130 12 177 29 14 6 17 1 17 -27 l0 -34 113
2 c61 1 115 2 120 3 4 0 4 16 1 34 -4 17 -7 169 -8 337 -2 304 -2 305 -28 361
-26 57 -66 96 -123 117 -46 18 -143 20 -208 5z m126 -575 c0 -51 -2 -96 -2
-100 -1 -4 -15 -15 -31 -23 -53 -27 -89 -3 -97 65 -6 47 10 101 37 125 17 16
78 35 90 29 3 -1 4 -44 3 -96z"/>
<path d="M1987 1168 c-125 -27 -207 -126 -201 -242 5 -89 39 -141 167 -249
118 -100 157 -142 157 -170 0 -36 -24 -56 -60 -52 -40 5 -73 31 -101 81 l-24
42 -77 -36 c-43 -19 -78 -40 -78 -47 0 -16 53 -97 83 -127 71 -71 223 -98 328
-59 65 25 123 78 141 130 6 20 12 62 11 93 -1 78 -38 134 -161 242 -53 46
-106 93 -118 103 -56 49 -65 101 -22 124 39 21 104 -30 130 -102 6 -15 16 -12
80 18 40 19 75 36 76 38 9 9 -22 78 -53 118 -59 77 -176 117 -278 95z"/>
<path d="M3260 1166 c-125 -26 -208 -129 -197 -245 8 -96 38 -138 180 -258
141 -118 152 -133 141 -177 -15 -61 -110 -35 -152 42 -13 23 -28 42 -33 42 -6
0 -35 -11 -65 -25 -30 -14 -58 -25 -62 -25 -5 0 -13 -5 -19 -11 -17 -17 17
-80 71 -134 132 -132 391 -105 465 48 27 56 28 137 1 191 -24 50 -61 89 -165
180 -44 38 -95 85 -112 104 -48 51 -43 96 10 106 33 6 74 -25 102 -78 11 -20
22 -36 26 -36 6 0 141 60 147 65 8 7 -50 114 -79 144 -30 31 -82 60 -119 67
-50 10 -91 10 -140 0z"/>
<path d="M2402 1162 c-37 -3 -42 -6 -37 -22 3 -10 24 -83 46 -162 22 -79 54
-192 71 -253 16 -60 35 -128 41 -150 6 -22 14 -43 19 -46 4 -3 32 -5 62 -4
l55 1 -6 -31 c-12 -69 -45 -180 -63 -215 -21 -41 -43 -53 -100 -55 l-34 -1 -1
-74 c-1 -41 0 -80 2 -86 6 -16 129 -7 188 13 58 21 110 70 135 127 18 39 46
155 131 541 21 99 48 218 59 265 10 47 22 100 25 118 l7 32 -79 1 c-101 1
-136 -1 -146 -10 -4 -4 -9 -27 -12 -52 -3 -24 -10 -64 -15 -89 -5 -25 -16 -85
-25 -135 -8 -49 -17 -101 -19 -115 -2 -14 -5 -34 -5 -44 -1 -23 -10 -17 -15
10 -2 11 -23 100 -46 199 -23 99 -43 187 -45 195 -2 8 -4 20 -4 27 -1 12 -109
21 -189 15z"/>
</g>
</svg>
